<svg xmlns="http://www.w3.org/2000/svg" viewBox="0 0 120 140" width="120" height="140">
  <!-- Drop shadow -->
  <defs>
    <filter id="emblem-shadow" x="-20%" y="-20%" width="140%" height="140%">
      <feDropShadow dx="2" dy="2" stdDeviation="2" flood-color="rgba(0,0,0,0.2)"/>
    </filter>
  </defs>

  <!-- Rice stalks background -->
  <g fill="#FFD700" stroke="none">
    <!-- Left rice stalk -->
    <path d="M25 120 Q20 100 22 80 Q25 60 30 45 Q35 30 42 20 Q48 15 55 12 L58 14 Q52 18 47 25 Q42 35 39 50 Q37 65 40 85 Q42 105 45 120 Z"/>
    <!-- Right rice stalk -->
    <path d="M95 120 Q100 100 98 80 Q95 60 90 45 Q85 30 78 20 Q72 15 65 12 L62 14 Q68 18 73 25 Q78 35 81 50 Q83 65 80 85 Q78 105 75 120 Z"/>

    <!-- Rice grains on left stalk -->
    <ellipse cx="35" cy="25" rx="2" ry="4"/>
    <ellipse cx="38" cy="30" rx="2" ry="4"/>
    <ellipse cx="36" cy="35" rx="2" ry="4"/>
    <ellipse cx="39" cy="40" rx="2" ry="4"/>
    <ellipse cx="37" cy="45" rx="2" ry="4"/>
    <ellipse cx="40" cy="50" rx="2" ry="4"/>

    <!-- Rice grains on right stalk -->
    <ellipse cx="85" cy="25" rx="2" ry="4"/>
    <ellipse cx="82" cy="30" rx="2" ry="4"/>
    <ellipse cx="84" cy="35" rx="2" ry="4"/>
    <ellipse cx="81" cy="40" rx="2" ry="4"/>
    <ellipse cx="83" cy="45" rx="2" ry="4"/>
    <ellipse cx="80" cy="50" rx="2" ry="4"/>
  </g>

  <!-- Central red disk -->
  <circle cx="60" cy="55" r="35" fill="#D42131" stroke="#FFFFFF" stroke-width="1"/>

  <!-- Golden cogwheel at bottom -->
  <g fill="#FFD700" stroke="none">
    <circle cx="60" cy="80" r="8"/>
    <!-- Gear teeth -->
    <rect x="58" y="68" width="4" height="6"/>
    <rect x="68" y="72" width="6" height="4"/>
    <rect x="58" y="86" width="4" height="6"/>
    <rect x="46" y="72" width="6" height="4"/>
    <rect x="51" y="70" width="4" height="3" transform="rotate(45 53 71.5)"/>
    <rect x="65" y="70" width="4" height="3" transform="rotate(-45 67 71.5)"/>
    <rect x="51" y="83" width="4" height="3" transform="rotate(-45 53 84.5)"/>
    <rect x="65" y="83" width="4" height="3" transform="rotate(45 67 84.5)"/>
    <!-- Center hole -->
    <circle cx="60" cy="80" r="3" fill="#D42131"/>
  </g>

  <!-- Golden five-pointed star -->
  <g fill="#FFE000" stroke="none">
    <path d="M60 25 L63.5 37 L76 37 L66.25 45 L69.75 57 L60 49 L50.25 57 L53.75 45 L44 37 L56.5 37 Z"/>
  </g>

  <!-- Red ribbon at bottom -->
  <g fill="#D42131" stroke="none">
    <path d="M20 115 Q60 110 100 115 L100 125 Q60 120 20 125 Z"/>
  </g>

  <!-- National motto text -->
  <text x="60" y="122" text-anchor="middle" fill="#FFFFFF" font-family="Arial, sans-serif" font-size="6" font-weight="bold">
    CỘNG HÒA XÃ HỘI CHỦ NGHĨA VIỆT NAM
  </text>

  <!-- Apply shadow filter to entire emblem -->
  <style>
    svg { filter: url(#emblem-shadow); }
  </style>
</svg>